# xmcd CD database file
#
# Track frame offsets:
#	150
#	20748
#	36515
#	48959
#	62198
#	86916
#	102979
#	122198
#	132452
#	148064
#	163267
#	179727
#	192122
#	207604
#	223001
#	242029
#	251337
#	266653
#	280744
#
# Disc length: 3894 seconds
#
# Revision: 0
# Processed by: cddbd v1.5.1PL2 Copyright (c) Steve Scherf et al.
# Submitted via: CDex 1.51
#
DISCID=370f3413
DTITLE=Reg Poole - Rigs and Roads Rides Again
DYEAR=2005
DGENRE=Country
TTITLE0=Old Sixties Truckie
TTITLE1=Truckdriver From Hell
TTITLE2=The Bitumen's My Mistress
TTITLE3=Click Go The Gears
TTITLE4=Devil's Drive
TTITLE5=Newell Highway Blues
TTITLE6=The Man In The Mirror
TTITLE7=The Truckie And The Cocky
TTITLE8=Through The Eyes Of A Truckie
TTITLE9=Truckstop Encounter
TTITLE10=Truckdriver's Waltz
TTITLE11=The Long Load
TTITLE12=Interstater
TTITLE13=Greasy Bloody Truckie
TTITLE14=Fireball Dan
TTITLE15=Tow Truck Man
TTITLE16=Princess Of The Highway
TTITLE17=How Come I'm Here Tonight
TTITLE18=Roll Trucker Roll
EXTD=YEAR: 2005
EXTT0=
EXTT1=
EXTT2=
EXTT3=
EXTT4=
EXTT5=
EXTT6=
EXTT7=
EXTT8=
EXTT9=
EXTT10=
EXTT11=
EXTT12=
EXTT13=
EXTT14=
EXTT15=
EXTT16=
EXTT17=
EXTT18=
PLAYORDER=
